<svg width="12" height="16" fill="none" xmlns="http://www.w3.org/2000/svg"><path d="M5.788 12.883c-.48 0-.887.15-1.225.453-.339.303-.508.67-.508 1.102 0 .488.171.87.513 1.149.343.278.74.417 1.197.417.464 0 .868-.137 1.214-.412.346-.275.518-.66.518-1.154a1.44 1.44 0 00-.495-1.101c-.331-.303-.736-.454-1.214-.454zM10.672 2.167c-.439-.668-1.067-1.203-1.87-1.59C8.006.195 7.078 0 6.042 0 4.928 0 3.937.233 3.097.693c-.842.459-1.49 1.049-1.931 1.754-.443.708-.667 1.42-.667 2.116 0 .372.154.719.458 1.03.305.314.685.473 1.129.473.755 0 1.272-.445 1.535-1.315.239-.722.534-1.271.875-1.635.32-.343.841-.517 1.547-.517.608 0 1.088.17 1.468.522.375.347.558.76.558 1.264a1.4 1.4 0 01-.179.697 2.806 2.806 0 01-.468.62c-.195.194-.516.489-.956.873-.512.449-.925.843-1.227 1.168-.319.348-.575.75-.757 1.185-.19.451-.287.988-.287 1.597 0 .52.145.923.432 1.197.284.273.637.411 1.05.411.792 0 1.289-.432 1.436-1.24.077-.337.132-.572.17-.706.034-.122.084-.246.148-.37.061-.121.16-.258.29-.41.138-.157.325-.344.552-.551a61.922 61.922 0 001.787-1.64c.344-.337.644-.741.893-1.202.254-.472.383-1.027.383-1.649a3.94 3.94 0 00-.665-2.198" fill="#FFB500"/></svg>