<svg width="52" height="92" fill="none" xmlns="http://www.w3.org/2000/svg"><g clip-path="url(#clip0)" fill="#FE9300" fill-opacity=".15"><path d="M33.31 19.238a18.21 18.21 0 00-.847-1.319l-.013-.02c-1.244-1.818-2.223-3.254-.143-5.157l.387-.408c.155-.086.314-.162.473-.226 4.032-1.595 9.073 3.877 10.531 7.136 2.962 6.806 2.851 11.396-.324 13.633-.556.362-1.669.967-2.975 1.485-1.576.625-4.495 1.531-6.328.587-.783-.403-1.306-1.123-1.556-2.14-.51-2.072.086-3.846.718-5.723.792-2.362 1.613-4.8.078-7.848zM34.505 37.455c.171-.068.35-.105.527-.112.572-.021 1.13.272 1.57.827.467.589.74 1.387.774 2.251.054 1.456-.593 2.744-1.576 3.134a1.65 1.65 0 01-.527.112c-1.227.045-2.277-1.336-2.344-3.079-.055-1.454.592-2.742 1.576-3.133zM41.207 38.71c.116.752-.161 1.463-.644 1.654a.699.699 0 01-.15.04c-.57.086-1.137-.53-1.268-1.378-.127-.81.24-1.613.793-1.693.57-.086 1.138.53 1.269 1.378zM44.198 36.952c.149.32.2.658.14.952-.05.26-.179.44-.384.536-.396.155-.964-.21-1.239-.795-.15-.32-.2-.658-.142-.952.05-.253.176-.438.35-.52l.032-.015c.403-.16.962.195 1.243.794zM47.137 35.748c-.003.258-.092.465-.252.584a.59.59 0 01-.12.064c-.376.15-.926-.098-1.28-.577-.243-.329-.36-.722-.307-1.051a.632.632 0 01.238-.431.464.464 0 01.117-.064c.373-.148.935.104 1.28.573.211.284.323.604.324.902zM48.648 32.965c.001.18-.059.32-.164.397a.37.37 0 01-.079.045c-.262.104-.664-.085-.916-.429a1.13 1.13 0 01-.239-.663c0-.177.06-.32.166-.398.245-.174.717.007.994.385.154.21.24.446.239.663z"/></g><path d="M26.165 60.688c.172.022.345.055.516.098l.498.309c2.474 1.306 1.888 2.943 1.14 5.035a17.9 17.9 0 00-.488 1.507c-.713 3.32.699 5.473 2.065 7.556 1.087 1.659 2.112 3.222 2.143 5.358.015 1.046-.309 1.875-.965 2.463-1.535 1.374-4.587 1.232-6.27 1.025-1.397-.172-2.624-.474-3.243-.68-3.648-1.367-4.92-5.78-3.777-13.11.583-3.523 4.076-10.09 8.38-9.56zM31.581 91.777c-1.05-.129-2.003-1.212-2.318-2.635-.188-.844-.125-1.686.178-2.372.287-.648.751-1.072 1.31-1.196.176-.038.358-.046.539-.024 1.05.13 2.002 1.212 2.318 2.633.377 1.706-.29 3.306-1.489 3.57a1.595 1.595 0 01-.538.024zM26.165 89.89c-.517-.064-.965-.681-1.045-1.436-.087-.851.308-1.594.881-1.652a.593.593 0 01.149 0c.511.064.972.695 1.047 1.439.09.853-.305 1.592-.88 1.653a.821.821 0 01-.152-.004zM23.392 87.804c-.12.657-.576 1.13-1.034 1.075-.19-.038-.36-.184-.472-.417-.13-.267-.166-.607-.103-.954.121-.65.569-1.135 1-1.082l.033.004c.193.036.362.186.474.418.13.268.168.606.102.956zM20.311 86.23c-.218.55-.686.93-1.09.881a.54.54 0 01-.133-.034c-.184-.073-.326-.25-.39-.501a1.547 1.547 0 01.083-.952c.24-.603.815-1.008 1.224-.847a.655.655 0 01.341.359c.131.305.117.713-.035 1.094zM17.655 83.985c-.156.396-.5.68-.78.646a.298.298 0 01-.084-.021c-.123-.05-.216-.171-.261-.344a1.144 1.144 0 01.063-.703c.155-.395.5-.678.784-.643.028.003.054.01.08.02.122.049.216.171.26.343.058.212.036.46-.061.702z" fill="#FE9300" fill-opacity=".15"/><defs><clipPath id="clip0"><path fill="#fff" transform="rotate(158.373 22.454 23.532) skewX(.086)" d="M0 0h40.031v39.967H0z"/></clipPath></defs></svg>