<svg width="178" height="102" fill="none" xmlns="http://www.w3.org/2000/svg"><g clip-path="url(#clip0)" fill="#FE9300" fill-opacity=".15"><path d="M37.514 36.364c-.876.494-1.74 1.08-2.572 1.65l-.04.024c-3.545 2.421-6.345 4.327-10.056.28l-.795-.755a7.974 7.974 0 01-.44-.92c-3.112-7.845 7.558-17.652 13.915-20.49 13.271-5.763 22.221-5.548 26.583.63.707 1.082 1.886 3.248 2.896 5.79 1.218 3.066 2.986 8.744 1.145 12.31-.786 1.525-2.19 2.544-4.172 3.03-4.042.991-7.5-.168-11.162-1.397-4.606-1.542-9.358-3.14-15.302-.152zM73.038 34.039a3.154 3.154 0 01-.22-1.025c-.04-1.113.532-2.197 1.614-3.054 1.148-.908 2.704-1.442 4.389-1.505 2.838-.107 5.35 1.152 6.11 3.065.132.332.202.677.22 1.025.086 2.387-2.606 4.43-6.004 4.56-2.835.107-5.348-1.151-6.109-3.066zM75.485 21c1.465-.226 2.85.314 3.224 1.253.037.095.062.192.078.292.168 1.108-1.035 2.213-2.687 2.468-1.579.246-3.145-.469-3.302-1.545-.168-1.107 1.035-2.212 2.687-2.468zM72.055 15.18c.625-.29 1.284-.388 1.857-.273.507.097.856.349 1.045.747.302.771-.408 1.877-1.55 2.41-.624.294-1.282.392-1.855.278-.494-.097-.856-.343-1.016-.683l-.028-.06c-.313-.785.38-1.872 1.547-2.418zM69.707 9.46c.504.006.907.18 1.139.49.05.072.093.151.126.234.29.732-.19 1.803-1.125 2.492-.641.471-1.408.697-2.05.597-.256-.036-.612-.15-.841-.465a.898.898 0 01-.123-.227c-.288-.726.201-1.819 1.116-2.492.554-.41 1.178-.627 1.758-.628zM64.282 6.52c.35-.002.626.115.775.32.038.053.066.1.087.154.202.509-.165 1.29-.836 1.782-.408.301-.868.466-1.292.463-.346 0-.624-.116-.776-.323-.34-.475.014-1.393.75-1.932.408-.3.87-.468 1.292-.464z"/></g><path d="M116.708 50.268c.041-.336.106-.672.191-1.004l.601-.969c2.547-4.815 5.739-3.674 9.819-2.219.947.34 1.933.688 2.939.951 6.473 1.386 10.672-1.36 14.734-4.019 3.234-2.114 6.283-4.109 10.448-4.169 2.039-.03 3.655.6 4.802 1.877 2.681 2.986 2.403 8.925 1.999 12.2-.336 2.719-.924 5.105-1.326 6.31-2.665 7.098-11.271 9.572-25.566 7.35-6.868-1.136-19.675-7.931-18.641-16.308zM177.331 39.728c-.252 2.044-2.364 3.897-5.138 4.511-1.646.365-3.287.242-4.625-.348-1.263-.556-2.09-1.46-2.332-2.548a3.12 3.12 0 01-.046-1.048c.252-2.043 2.363-3.895 5.134-4.51 3.325-.732 6.444.565 6.96 2.897.075.34.091.691.047 1.046zM173.65 50.268c-.125 1.006-1.328 1.877-2.8 2.032-1.661.17-3.109-.599-3.221-1.713a1.168 1.168 0 01.001-.29c.123-.995 1.353-1.892 2.804-2.038 1.663-.173 3.105.594 3.223 1.711.006.09.005.194-.007.298zM169.582 55.662c1.282.236 2.204 1.121 2.098 2.013-.074.37-.361.7-.814.917-.521.253-1.184.325-1.861.2-1.266-.234-2.212-1.106-2.109-1.942l.008-.066c.071-.376.363-.705.815-.923.522-.252 1.181-.326 1.863-.199zM166.513 61.657c1.074.426 1.815 1.335 1.718 2.122a1.066 1.066 0 01-.066.257c-.142.359-.489.634-.978.76-.562.147-1.221.09-1.855-.162-1.176-.465-1.965-1.586-1.652-2.38.146-.361.461-.563.7-.665.594-.255 1.39-.227 2.133.068zM162.136 66.825c.773.305 1.325.973 1.258 1.517a.596.596 0 01-.04.164c-.097.24-.334.42-.67.508-.417.108-.9.065-1.37-.123-.77-.302-1.322-.973-1.254-1.524a.66.66 0 01.04-.155c.095-.239.333-.422.668-.507.413-.112.897-.07 1.368.12z" fill="#FE9300" fill-opacity=".15"/><defs><clipPath id="clip0"><path fill="#fff" transform="rotate(68.329 36.203 53.342)" d="M0 0h77.913v77.913H0z"/></clipPath></defs></svg>