<svg width="40" height="40" fill="none" xmlns="http://www.w3.org/2000/svg"><path d="M40 18.79c-.05 5.161-1.388 9.198-4.17 12.706-2.987 3.769-6.877 6.162-11.637 7.13-3.676.74-7.254.415-10.767-.846a16.671 16.671 0 01-2.273-1.018.745.745 0 00-.656-.057A2040.758 2040.758 0 01.509 39.88c-.147.049-.344.187-.46.081-.13-.13.034-.325.083-.48.665-1.962 1.33-3.931 2.002-5.893.41-1.197.805-2.385 1.231-3.573.115-.31.074-.546-.098-.83a18.776 18.776 0 01-1.912-4.567 18.975 18.975 0 01-.271-9.1c.706-3.32 2.183-6.283 4.456-8.839C8.29 3.586 11.678 1.543 15.708.56A19.385 19.385 0 0123.48.257c3.413.554 6.49 1.897 9.174 4.062 2.79 2.255 4.826 5.054 6.106 8.416.706 1.815 1.264 4.786 1.24 6.056zM5.055 35.046c2.035-.651 3.98-1.27 5.908-1.897.255-.08.46-.065.682.082.738.488 1.534.879 2.355 1.22 2.667 1.124 5.44 1.531 8.305 1.165 3.512-.448 6.598-1.848 9.191-4.282 3.267-3.068 5.014-6.828 5.17-11.273.148-4.354-1.263-8.18-4.21-11.427-2.798-3.085-6.31-4.843-10.455-5.283-3.602-.382-6.975.391-10.094 2.247-2.667 1.595-4.71 3.768-6.13 6.511-1.567 3.02-2.1 6.227-1.65 9.588a15.533 15.533 0 002.733 6.976c.164.236.214.431.115.708-.303.83-.574 1.669-.862 2.499-.344 1.025-.68 2.05-1.058 3.166z" fill="#077134"/><path d="M10.505 14.957c.041-1.937.73-3.378 2.035-4.525a1.822 1.822 0 011.519-.456c.246.032.492.057.738.04.46-.024.771.196.928.595.55 1.416 1.083 2.832 1.616 4.257.18.488-.131.87-.394 1.22-.303.416-.673.782-1.034 1.148-.37.374-.418.586-.164 1.042 1.486 2.678 3.57 4.737 6.401 6.007.099.04.197.098.296.146.377.171.714.13 1-.195.526-.61 1.1-1.172 1.585-1.815.32-.423.541-.497 1.026-.285 1.444.619 2.798 1.4 4.177 2.157.254.138.344.35.336.643-.074 2.401-1.46 3.654-3.898 4.208-1.182.269-2.273-.024-3.357-.415-2.273-.814-4.464-1.774-6.302-3.386a22.975 22.975 0 01-3.84-4.322c-.838-1.237-1.708-2.45-2.192-3.89-.279-.766-.484-1.547-.476-2.174z" fill="#077134"/></svg>