<svg width="24" height="24" fill="none" xmlns="http://www.w3.org/2000/svg"><g clip-path="url(#clip0)" fill="#FFB500"><path d="M11.681 19.324c-.718 0-1.33.226-1.837.68-.507.454-.761 1.006-.761 1.653 0 .732.257 1.305.769 1.723a2.76 2.76 0 001.795.626c.696 0 1.302-.206 1.821-.619.52-.412.777-.988.777-1.73 0-.647-.247-1.198-.743-1.652-.496-.455-1.103-.681-1.82-.681zM19.008 3.25c-.658-1.002-1.601-1.804-2.805-2.383C15.01.29 13.617 0 12.063 0c-1.67 0-3.157.35-4.417 1.039-1.263.689-2.236 1.574-2.897 2.632-.665 1.062-1 2.13-1 3.173 0 .559.23 1.079.686 1.547.458.47 1.028.708 1.693.708 1.133 0 1.909-.667 2.303-1.973.359-1.082.801-1.906 1.313-2.452.481-.515 1.262-.775 2.32-.775.912 0 1.632.256 2.203.782.562.52.836 1.142.836 1.897a2.1 2.1 0 01-.268 1.045 4.21 4.21 0 01-.702.93c-.292.292-.774.733-1.434 1.31a25.552 25.552 0 00-1.84 1.752 6.131 6.131 0 00-1.136 1.777c-.286.677-.43 1.482-.43 2.395 0 .78.217 1.385.648 1.796.425.41.955.617 1.576.617 1.186 0 1.931-.649 2.152-1.862.115-.504.199-.857.255-1.058.052-.182.126-.369.222-.556.092-.18.24-.386.436-.613.206-.236.486-.516.828-.827 1.278-1.143 2.18-1.97 2.68-2.46a7.512 7.512 0 001.34-1.802c.38-.709.574-1.541.574-2.474a5.908 5.908 0 00-.998-3.297"/></g><defs><clipPath id="clip0"><path fill="#fff" d="M0 0h24v24H0z"/></clipPath></defs></svg>